<?xml version="1.0" encoding="UTF-8"?>
<svg width="24px" height="21px" viewBox="0 0 24 21" version="1.1" xmlns="http://www.w3.org/2000/svg" xmlns:xlink="http://www.w3.org/1999/xlink">
    <!-- Generator: Sketch 61 (89581) - https://sketch.com -->
    <title>alert-triangle (1)</title>
    <desc>Created with Sketch.</desc>
    <g id="Form-Page" stroke="none" stroke-width="1" fill="none" fill-rule="evenodd" stroke-linecap="round" stroke-linejoin="round">
        <g id="HF_Form_State_2_Desktop_v2_JW" transform="translate(-941.000000, -652.000000)" stroke="#D81111" stroke-width="2">
            <g id="Stacked-Group-3" transform="translate(457.000000, 492.000000)">
                <g id="Stacked-Group-6-Copy" transform="translate(0.000000, 112.000000)">
                    <g id="Rectangle-3" transform="translate(0.000000, 33.000000)">
                        <g id="alert-triangle-(1)" transform="translate(485.000000, 16.000000)">
                            <path d="M9.29,1.86 L0.82,16 C0.464641628,16.6153996 0.462519934,17.3731469 0.81442652,17.9905269 C1.16633311,18.6079069 1.81941202,18.9921898 2.53,19 L19.47,19 C20.180588,18.9921898 20.8336669,18.6079069 21.1855735,17.9905269 C21.5374801,17.3731469 21.5353584,16.6153996 21.18,16 L12.71,1.86 C12.3474343,1.26228132 11.6990862,0.897255995 11,0.897255995 C10.3009138,0.897255995 9.65256566,1.26228132 9.29,1.86 Z" id="Path"></path>
                            <line x1="11" y1="7" x2="11" y2="11" id="Path"></line>
                            <line x1="11" y1="15" x2="11.01" y2="15" id="Path"></line>
                        </g>
                    </g>
                </g>
            </g>
        </g>
    </g>
</svg>