<svg id="Layer_1" data-name="Layer 1" xmlns="http://www.w3.org/2000/svg" xmlns:xlink="http://www.w3.org/1999/xlink" viewBox="0 0 296.49 296.49"><defs><style>.cls-1{fill:#f0edf7;}.cls-2{fill:url(#linear-gradient);}.cls-3{fill:#6c7382;}</style><linearGradient id="linear-gradient" x1="39.95" y1="148.24" x2="256.54" y2="148.24" gradientUnits="userSpaceOnUse"><stop offset="0" stop-color="#e6e4f2"/><stop offset="1" stop-color="#eeedf6"/></linearGradient></defs><title>plate</title><circle class="cls-1" cx="148.24" cy="148.24" r="148.24"/><circle class="cls-2" cx="148.24" cy="148.24" r="108.29"/><path class="cls-3" d="M193.66,121.47c4.94,0,8.41,3.33,8.41,8s-3.47,7.74-8.41,7.87c-4.66,0-8.27-3.07-8.27-8C185.39,124.67,189,121.47,193.66,121.47Zm-91.65,0c4.93,0,8.4,3.33,8.4,8s-3.47,7.74-8.4,7.87c-4.67,0-8.27-3.07-8.27-8C93.75,124.67,97.35,121.47,102,121.47Z" transform="translate(-1.76 -1.76)"/><path class="cls-3" d="M204.44,173.66c-13.07-9.74-30.41-16.81-54.55-16.81-23.74,0-40.81,7.34-54.15,16.81v-9.2C106.82,156,123.89,147,149.89,147c26.27.14,43.35,9.07,54.55,17.47Z" transform="translate(-1.76 -1.76)"/></svg>